# xmcd CD database file
#
# Track frame offsets:
#	150
#	21563
#	40491
#	57900
#	80463
#	93369
#	111107
#	128282
#	140384
#	155370
#
# Disc length: 2366 seconds
#
# Revision: 5
# Processed by: cddbd v1.5.2PL0 Copyright (c) Steve Scherf et al.
# Submitted via: CDex 1.72
#
DISCID=7b093c0a
DTITLE=Ely, Joe (USA-11-Satisfied At Last-cty) - Satisfied at Last
DYEAR=2011
DGENRE=Country
TTITLE0=The Highway Is My Home
TTITLE1=Not That Much Has Changed
TTITLE2=Satisfied at Last
TTITLE3=Mockingbird Hill
TTITLE4=You Can Bet I'm Gone
TTITLE5=Leo and Leona
TTITLE6=Live Forever
TTITLE7=Roll Again
TTITLE8=I'm a Man Now
TTITLE9=Circumstance
EXTD=YEAR: 2011
EXTT0=
EXTT1=
EXTT2=
EXTT3=
EXTT4=
EXTT5=
EXTT6=
EXTT7=
EXTT8=
EXTT9=
PLAYORDER=
